For all those FRIENDS fanatics out there who want the whole season irrespective of the quality, here's presenting the first half of the entire Season 10. Since over 4 hours of video is compressed into a 700MB file the video quality rates just 6 out of 10 EVEN THOUGH THE AUDIO QUALITY IS A FULL 10. But go ahead and download it if you're eager to watch the episodes.

EPISODES

"The One After Joey and Rachel Kiss"	
"The One Where Ross Is Fine"
"The One with Ross' Tan"
"The One with the Cake"
"The One Where Rachel's Sister Baby-Sits"
"The One with Ross's Grant"	
"The One with the Home Study"	
"The One with the Late Thanksgiving"		
"The One with the Birth Mother"	
"The One Where Chandler Gets Caught"	
"The One Where the Stripper Cries"


FILE INFORMATION 


Format                           : AVI
Format/Info                      : Audio Video Interleave
File size                        : 700 MiB
Duration                         : 4h 27mn
Overall bit rate                 : 366 Kbps

Video

ID                               : 0
Format                           : MPEG-4 Visual
Format settings, BVOP            : Yes
Format settings, QPel            : No
Format settings, GMC             : No warppoints
Format settings, Matrix          : Default (H.263)
Muxing mode                      : Packed bitstream
Codec ID                         : DX50
Codec ID/Hint                    : DivX 5
Duration                         : 4h 27mn
Bit rate                         : 309 Kbps
Width                            : 656 pixels
Height                           : 480 pixels
Display aspect ratio             : 4:3
Frame rate                       : 25.000 fps
Resolution                       : 8 bits
Colorimetry                      : 4:2:0
Scan type                        : Progressive
Bits/(Pixel*Frame)               : 0.039
Stream size                      : 590 MiB (84%)
Title                            : Video 
Writing library                  : DivX 6.8.0 Converter 6.6

Audio

ID                               : 1
Format                           : MPEG Audio
Format version                   : Version 1
Format profile                   : Layer 3
Mode                             : Joint stereo
Format_Settings_ModeExtension    : MS Stereo
Codec ID                         : 55
Codec ID/Hint                    : MP3
Duration                         : 4h 27mn
Bit rate mode                    : Constant
Bit rate                         : 48.0 Kbps
Channel(s)                       : 2 channels
Sampling rate                    : 48.0 KHz
Stream size                      : 91.7 MiB (13%)
Alignment                        : Split accross interleaves
Interleave, duration             : 40 ms (1.00 video frame)
Interleave, preload duration     : 500 ms
Title                            : Audio 
Writing library                  : LAME3.92


SCREENS 
http://img130.imageshack.us/img130/5831/friendsseason10partisue.jpg